Coordinates
version=1
nRows=11
nColumns=33
inDegrees=yes

Units are S.I. units (second, meters, Newtons, ...)
Angles are in degrees.

endheader
time	ground_thorax_rot_x	ground_thorax_rot_y	ground_thorax_rot_z	ground_thorax_tx	ground_thorax_ty	ground_thorax_tz	clav_prot_r	clav_elev_r	scapula_abduction_r	scapula_elevation_r	scapula_upward_rot_r	scapula_winging_r	shoulder_elv_r	plane_of_elev_r	axial_rot_r	elbow_flexion_r	pro_sup_r	wrist_flex_r	wrist_dev_r	clav_prot_l	clav_elev_l	scapula_abduction_l	scapula_elevation_l	scapula_upward_rot_l	scapula_winging_l	shoulder_elv_l	plane_of_elev_l	axial_rot_l	elbow_flexion_l	pro_sup_l	wrist_flex_l	wrist_dev_l	
6.1200	35.213916	20.175784	25.757328	-216.815503	828.979144	4.434400	12.342675	39.116494	38.375399	45.000000	-33.392381	-1171.118679	-3712.014025	146.791330	-126.440538	734.164640	31.562604	19.373440	4.285539	8.147526	-45.000000	-37.324119	45.000000	-44.132490	2619.706668	-2803.046489	22.067911	-51.987847	730.654610	7.605353	5.795971	-20.176790	
6.1300	35.365400	19.913822	25.370964	-219.712147	829.849207	4.451506	12.320399	39.031390	38.323347	45.000000	-33.602057	-1171.191513	-3711.920804	146.743041	-126.359487	734.201314	32.402014	19.233171	4.015144	8.192822	-45.000000	-37.283350	45.000000	-44.329956	2619.875738	-2802.962107	22.053616	-52.120617	730.658982	7.681126	5.626974	-20.162406	
6.1400	35.506436	19.663176	25.002953	-222.572509	830.671006	4.485633	12.295934	38.950259	38.268084	45.000000	-33.830215	-1171.257076	-3711.830751	146.703834	-126.274733	734.251124	33.370676	19.078420	3.740412	8.235836	-45.000000	-37.237401	45.000000	-44.536770	2620.042952	-2802.882958	22.033181	-52.275309	730.664955	7.795571	5.456722	-20.142280	
6.1500	35.639508	19.420942	24.648749	-225.397277	831.443813	4.535896	12.268477	38.887123	38.202286	45.000000	-34.050365	-1171.311621	-3711.742336	146.679997	-126.178672	734.317115	34.480950	18.911475	3.470219	8.273623	-45.000000	-37.182796	45.000000	-44.723495	2620.205210	-2802.805087	21.996796	-52.483335	730.675058	7.956088	5.293067	-20.119239	
6.1600	35.767094	19.182769	24.301479	-228.187350	832.166156	4.601204	12.237568	38.845371	38.126700	45.000000	-34.237734	-1171.358474	-3711.661448	146.674123	-126.050879	734.402857	35.739157	18.732289	3.209633	8.296544	-45.000000	-37.122024	45.000000	-44.847778	2620.367397	-2802.727971	21.934894	-52.785974	730.693451	8.169104	5.128749	-20.094099	
6.1700	35.885871	18.948033	23.964315	-230.943471	832.835929	4.680365	12.200056	38.800356	38.052809	45.000000	-34.421883	-1171.398901	-3711.593013	146.684599	-125.932603	734.504060	37.169530	18.532904	2.947510	8.317926	-45.000000	-37.070101	45.000000	-44.939802	2620.530275	-2802.664456	21.859577	-53.080492	730.708630	8.424792	4.968863	-20.064568	
6.1800	35.997872	18.713267	23.632073	-233.665781	833.450614	4.772163	12.163261	38.750972	37.976425	45.000000	-34.604429	-1171.431420	-3711.533404	146.700629	-125.815115	734.626676	38.803124	18.310982	2.689661	8.331397	-45.000000	-37.025126	45.000000	-44.971339	2620.696328	-2802.611408	21.764165	-53.414807	730.724283	8.735022	4.804559	-20.030155	
6.1900	36.099708	18.489469	23.323092	-236.353540	834.007707	4.875427	12.112369	38.717620	37.914551	45.000000	-34.774083	-1171.454483	-3711.483407	146.759646	-125.705103	734.773952	40.641816	18.072918	2.442064	8.335583	-45.000000	-36.985773	45.000000	-44.953934	2620.863537	-2802.567472	21.640987	-53.776199	730.739303	9.101288	4.643640	-19.992983	
6.2000	36.191265	18.269228	23.021438	-239.004766	834.505037	4.989059	12.072266	38.658031	37.847511	45.000000	-35.003613	-1171.465289	-3711.429319	146.798980	-125.660694	734.950600	42.743707	17.806270	2.194262	8.351983	-45.000000	-36.957006	45.000000	-44.935164	2621.033635	-2802.537532	21.521687	-54.081980	730.758031	9.528503	4.485822	-19.952456	
6.2100	36.273701	18.058676	22.738161	-241.616341	834.940957	5.112086	12.024095	38.607438	37.775654	45.000000	-35.243248	-1171.467294	-3711.376183	146.842710	-125.631140	735.155794	45.082979	17.523453	1.960154	8.367119	-45.000000	-36.922343	45.000000	-44.921046	2621.202970	-2802.511599	21.402062	-54.384048	730.779331	10.025465	4.325930	-19.908215	
6.2200	36.350314	17.852034	22.457717	-244.184439	835.314543	5.243687	11.986444	38.552858	37.670878	45.000000	-35.510560	-1171.459147	-3711.314858	146.845557	-125.618866	735.391755	47.663141	17.224778	1.746487	8.388432	-45.000000	-36.873083	45.000000	-44.927859	2621.369154	-2802.483502	21.299275	-54.699701	730.810716	10.609946	4.161959	-19.862388	
